<svg aria-hidden="true" style="position: absolute; width: 0; height: 0; overflow: hidden;" version="1.1" xmlns="http://www.w3.org/2000/svg" xmlns:xlink="http://www.w3.org/1999/xlink">
<defs>
<symbol id="icon-chevron-down" viewBox="0 0 32 32">
<path d="M3.292 9.292c0.181-0.181 0.431-0.294 0.708-0.294s0.527 0.112 0.708 0.294l11.292 11.294 11.292-11.294c0.181-0.181 0.431-0.293 0.708-0.293 0.553 0 1.001 0.448 1.001 1.001 0 0.277-0.112 0.527-0.293 0.708v0l-12 12c-0.181 0.181-0.431 0.294-0.708 0.294s-0.527-0.112-0.708-0.294l-12-12c-0.181-0.181-0.294-0.431-0.294-0.708s0.112-0.527 0.294-0.708l0-0z"></path>
</symbol>
<symbol id="icon-main" viewBox="0 0 34 32">
<path fill="#1dcf65" d="M30.991 24.428c0.028 0.329-0.228 0.611-0.555 0.611h-26.855c-0.326 0-0.582-0.281-0.555-0.609l1.924-23.488c0.024-0.292 0.265-0.516 0.555-0.516h22.925c0.289 0 0.53 0.223 0.555 0.514l2.005 23.488z"></path>
<path fill="#1dcf65" d="M33.134 30.556c0.034 0.41-0.287 0.761-0.694 0.761h-30.795c-0.406 0-0.726-0.35-0.694-0.759l2.211-28.136c0.029-0.366 0.331-0.648 0.694-0.648h26.281c0.362 0 0.664 0.281 0.694 0.645l2.303 28.136z"></path>
<path fill="#fff" d="M16.437 22.395c-4.008 0-7.269-3.956-7.269-8.818 0-0.253 0.203-0.459 0.454-0.459s0.454 0.205 0.454 0.459c0 4.357 2.854 7.901 6.361 7.901s6.361-3.544 6.361-7.901c0-0.253 0.203-0.459 0.454-0.459s0.454 0.205 0.454 0.459c-0 4.862-3.261 8.818-7.269 8.818z"></path>
<path fill="#fff" d="M20.912 13.454c-0.116 0-0.232-0.045-0.321-0.134-0.177-0.179-0.177-0.469 0-0.649l2.352-2.377c0.085-0.086 0.201-0.134 0.321-0.134s0.236 0.048 0.321 0.134l2.329 2.354c0.177 0.179 0.177 0.469 0 0.649s-0.465 0.179-0.642 0l-2.009-2.029-2.031 2.052c-0.089 0.090-0.205 0.134-0.321 0.134z"></path>
</symbol>
<symbol id="icon-cart" viewBox="0 0 34 32">
<path style="" d="M32.945 6.524c-0.638-0.78-1.632-1.255-2.66-1.255h-21.597l-0.673-2.509c-0.391-1.459-1.737-2.476-3.298-2.476h-3.617c-0.603 0-1.1 0.474-1.1 1.052 0 0.576 0.496 1.052 1.1 1.052h3.617c0.532 0 0.993 0.339 1.135 0.848l4.326 16.482c0.391 1.459 1.737 2.476 3.298 2.476h14.15c1.56 0 2.944-1.017 3.298-2.476l2.66-10.445c0.248-0.951 0.036-1.969-0.639-2.749v-0zM31.422 8.796l-2.66 10.445c-0.141 0.509-0.603 0.848-1.135 0.848h-14.151c-0.532 0-0.993-0.339-1.135-0.848l-3.085-11.835h21.031c0.355 0 0.709 0.17 0.923 0.441 0.212 0.27 0.317 0.609 0.212 0.948l-0-0z"></path>
<path style="" d="M14.222 23.548c-2.021 0-3.688 1.594-3.688 3.526s1.667 3.526 3.688 3.526c2.021 0.001 3.688-1.592 3.688-3.525s-1.667-3.528-3.688-3.528v0zM14.222 28.465c-0.816 0-1.455-0.611-1.455-1.391s0.639-1.391 1.455-1.391c0.816 0 1.455 0.611 1.455 1.391-0.001 0.747-0.675 1.391-1.455 1.391z"></path>
<path style="" d="M26.421 23.548c-2.021 0-3.688 1.594-3.688 3.526s1.667 3.526 3.688 3.526c2.021 0 3.688-1.594 3.688-3.526-0.035-1.931-1.667-3.526-3.688-3.526zM26.421 28.465c-0.816 0-1.454-0.611-1.454-1.391s0.639-1.391 1.454-1.391c0.816 0 1.455 0.611 1.455 1.391 0 0.747-0.675 1.391-1.455 1.391z"></path>
</symbol>
<symbol id="icon-dollar" viewBox="0 0 20 32">
<path d="M9.12 26.308l1.792 0.032v4.64h-1.792v-4.672zM9.28 25.956v-19.488l1.44-0.224v19.776l-1.44-0.064zM9.12 1.476h1.792v4.576l-1.792 0.224v-4.8zM16.256 9.604c-0.256-0.299-0.597-0.587-1.024-0.864s-0.907-0.523-1.44-0.736c-0.533-0.235-1.12-0.416-1.76-0.544-0.619-0.149-1.269-0.224-1.952-0.224-1.749 0-3.040 0.331-3.872 0.992s-1.248 1.568-1.248 2.72c0 0.811 0.213 1.451 0.64 1.92s1.077 0.853 1.952 1.152c0.896 0.299 2.027 0.608 3.392 0.928 1.579 0.341 2.944 0.757 4.096 1.248s2.037 1.152 2.656 1.984c0.619 0.811 0.928 1.899 0.928 3.264 0 1.088-0.213 2.037-0.64 2.848-0.405 0.789-0.981 1.451-1.728 1.984-0.747 0.512-1.621 0.896-2.624 1.152-1.003 0.235-2.091 0.352-3.264 0.352-1.152 0-2.283-0.117-3.392-0.352-1.088-0.256-2.123-0.619-3.104-1.088s-1.899-1.056-2.752-1.76l1.376-2.432c0.341 0.363 0.779 0.725 1.312 1.088 0.555 0.341 1.173 0.661 1.856 0.96 0.704 0.299 1.461 0.544 2.272 0.736 0.811 0.171 1.643 0.256 2.496 0.256 1.621 0 2.88-0.288 3.776-0.864 0.896-0.597 1.344-1.461 1.344-2.592 0-0.853-0.256-1.536-0.768-2.048-0.491-0.512-1.227-0.939-2.208-1.28s-2.176-0.683-3.584-1.024c-1.536-0.384-2.827-0.8-3.872-1.248-1.045-0.469-1.835-1.077-2.368-1.824-0.512-0.747-0.768-1.717-0.768-2.912 0-1.451 0.352-2.677 1.056-3.68s1.675-1.76 2.912-2.272c1.237-0.512 2.635-0.768 4.192-0.768 1.024 0 1.973 0.107 2.848 0.32 0.896 0.213 1.728 0.512 2.496 0.896s1.472 0.843 2.112 1.376l-1.344 2.336z"></path>
</symbol>
<symbol id="icon-chevron-right" viewBox="0 0 18 32">
<path fill="none" stroke="#fff" style="stroke: var(--color1, #fff)" stroke-linejoin="round" stroke-linecap="round" stroke-miterlimit="4" stroke-width="3.4286" d="M1.714 2.441l12.857 12.844-12.857 12.844"></path>
</symbol>
<symbol id="icon-chevron-left" viewBox="0 0 18 32">
<path fill="none" stroke="#fff" style="stroke: var(--color1, #fff)" stroke-linejoin="round" stroke-linecap="round" stroke-miterlimit="4" stroke-width="3.4286" d="M16.571 2.442l-12.857 12.844 12.857 12.843"></path>
</symbol>
<symbol id="icon-minus-lg" viewBox="0 0 32 32">
<path d="M4 16c0-0.552 0.448-1 1-1v0h22c0.552 0 1 0.448 1 1s-0.448 1-1 1v0h-22c-0.552 0-1-0.448-1-1v0z"></path>
</symbol>
<symbol id="icon-plus-lg" viewBox="0 0 32 32">
<path d="M16 4c0.552 0 1 0.448 1 1v0 10h10c0.552 0 1 0.448 1 1s-0.448 1-1 1v0h-10v10c0 0.552-0.448 1-1 1s-1-0.448-1-1v0-10h-10c-0.552 0-1-0.448-1-1s0.448-1 1-1v0h10v-10c0-0.552 0.448-1 1-1v0z"></path>
</symbol>
</defs>
</svg>
