<svg aria-hidden="true" style="position: absolute; width: 0; height: 0; overflow: hidden;" version="1.1" xmlns="http://www.w3.org/2000/svg" xmlns:xlink="http://www.w3.org/1999/xlink">
<defs>
<symbol id="icon-chevron-down" viewBox="0 0 32 32">
<path d="M3.292 9.292c0.181-0.181 0.431-0.294 0.708-0.294s0.527 0.112 0.708 0.294l11.292 11.294 11.292-11.294c0.181-0.181 0.431-0.293 0.708-0.293 0.553 0 1.001 0.448 1.001 1.001 0 0.277-0.112 0.527-0.293 0.708v0l-12 12c-0.181 0.181-0.431 0.294-0.708 0.294s-0.527-0.112-0.708-0.294l-12-12c-0.181-0.181-0.294-0.431-0.294-0.708s0.112-0.527 0.294-0.708l0-0z"></path>
</symbol>
<symbol id="icon-main" viewBox="0 0 34 32">
<path fill="#1dcf65" d="M30.991 24.428c0.028 0.329-0.228 0.611-0.555 0.611h-26.855c-0.326 0-0.582-0.281-0.555-0.609l1.924-23.488c0.024-0.292 0.265-0.516 0.555-0.516h22.925c0.289 0 0.53 0.223 0.555 0.514l2.005 23.488z"></path>
<path fill="#1dcf65" d="M33.134 30.556c0.034 0.41-0.287 0.761-0.694 0.761h-30.795c-0.406 0-0.726-0.35-0.694-0.759l2.211-28.136c0.029-0.366 0.331-0.648 0.694-0.648h26.281c0.362 0 0.664 0.281 0.694 0.645l2.303 28.136z"></path>
<path fill="#fff" d="M16.437 22.395c-4.008 0-7.269-3.956-7.269-8.818 0-0.253 0.203-0.459 0.454-0.459s0.454 0.205 0.454 0.459c0 4.357 2.854 7.901 6.361 7.901s6.361-3.544 6.361-7.901c0-0.253 0.203-0.459 0.454-0.459s0.454 0.205 0.454 0.459c-0 4.862-3.261 8.818-7.269 8.818z"></path>
<path fill="#fff" d="M20.912 13.454c-0.116 0-0.232-0.045-0.321-0.134-0.177-0.179-0.177-0.469 0-0.649l2.352-2.377c0.085-0.086 0.201-0.134 0.321-0.134s0.236 0.048 0.321 0.134l2.329 2.354c0.177 0.179 0.177 0.469 0 0.649s-0.465 0.179-0.642 0l-2.009-2.029-2.031 2.052c-0.089 0.090-0.205 0.134-0.321 0.134z"></path>
</symbol>
<symbol id="icon-cart" viewBox="0 0 34 32">
<path style="" d="M32.945 6.524c-0.638-0.78-1.632-1.255-2.66-1.255h-21.597l-0.673-2.509c-0.391-1.459-1.737-2.476-3.298-2.476h-3.617c-0.603 0-1.1 0.474-1.1 1.052 0 0.576 0.496 1.052 1.1 1.052h3.617c0.532 0 0.993 0.339 1.135 0.848l4.326 16.482c0.391 1.459 1.737 2.476 3.298 2.476h14.15c1.56 0 2.944-1.017 3.298-2.476l2.66-10.445c0.248-0.951 0.036-1.969-0.639-2.749v-0zM31.422 8.796l-2.66 10.445c-0.141 0.509-0.603 0.848-1.135 0.848h-14.151c-0.532 0-0.993-0.339-1.135-0.848l-3.085-11.835h21.031c0.355 0 0.709 0.17 0.923 0.441 0.212 0.27 0.317 0.609 0.212 0.948l-0-0z"></path>
<path style="" d="M14.222 23.548c-2.021 0-3.688 1.594-3.688 3.526s1.667 3.526 3.688 3.526c2.021 0.001 3.688-1.592 3.688-3.525s-1.667-3.528-3.688-3.528v0zM14.222 28.465c-0.816 0-1.455-0.611-1.455-1.391s0.639-1.391 1.455-1.391c0.816 0 1.455 0.611 1.455 1.391-0.001 0.747-0.675 1.391-1.455 1.391z"></path>
<path style="" d="M26.421 23.548c-2.021 0-3.688 1.594-3.688 3.526s1.667 3.526 3.688 3.526c2.021 0 3.688-1.594 3.688-3.526-0.035-1.931-1.667-3.526-3.688-3.526zM26.421 28.465c-0.816 0-1.454-0.611-1.454-1.391s0.639-1.391 1.454-1.391c0.816 0 1.455 0.611 1.455 1.391 0 0.747-0.675 1.391-1.455 1.391z"></path>
</symbol>
<symbol id="icon-chevron-right" viewBox="0 0 18 32">
<path fill="none" stroke="#fff" style="stroke: var(--color1, #fff)" stroke-linejoin="round" stroke-linecap="round" stroke-miterlimit="4" stroke-width="3.4286" d="M1.714 2.441l12.857 12.844-12.857 12.844"></path>
</symbol>
<symbol id="icon-chevron-left" viewBox="0 0 18 32">
<path fill="none" stroke="#fff" style="stroke: var(--color1, #fff)" stroke-linejoin="round" stroke-linecap="round" stroke-miterlimit="4" stroke-width="3.4286" d="M16.571 2.442l-12.857 12.844 12.857 12.843"></path>
</symbol>
<symbol id="icon-minus-lg" viewBox="0 0 32 32">
<path d="M4 16c0-0.552 0.448-1 1-1v0h22c0.552 0 1 0.448 1 1s-0.448 1-1 1v0h-22c-0.552 0-1-0.448-1-1v0z"></path>
</symbol>
<symbol id="icon-plus-lg" viewBox="0 0 32 32">
<path d="M16 4c0.552 0 1 0.448 1 1v0 10h10c0.552 0 1 0.448 1 1s-0.448 1-1 1v0h-10v10c0 0.552-0.448 1-1 1s-1-0.448-1-1v0-10h-10c-0.552 0-1-0.448-1-1s0.448-1 1-1v0h10v-10c0-0.552 0.448-1 1-1v0z"></path>
</symbol>
</defs>
</svg>
